<?xml version="1.0" encoding="UTF-8"?>
<svg id="Layer_1" data-name="Layer 1" xmlns="http://www.w3.org/2000/svg" xmlns:xlink="http://www.w3.org/1999/xlink" viewBox="0 0 56.7 70.88">
  <defs>
    <style>
      .cls-1 {
        fill: none;
      }

      .cls-2 {
        clip-path: url(#clippath);
      }

      .cls-3 {
        clip-path: url(#clippath-1);
      }

      .cls-4 {
        fill: #c5c6c7;
      }

      .cls-4, .cls-5, .cls-6, .cls-7 {
        fill-rule: evenodd;
      }

      .cls-5 {
        fill: #d4d5d7;
      }

      .cls-6 {
        fill: #adaeb0;
      }

      .cls-7 {
        fill: #003e73;
      }
    </style>
    <clipPath id="clippath">
      <rect class="cls-1" y="0" width="56.69" height="70.87"/>
    </clipPath>
    <clipPath id="clippath-1">
      <rect class="cls-1" width="56.7" height="70.86"/>
    </clipPath>
  </defs>
  <g class="cls-2">
    <g class="cls-3">
      <path class="cls-5" d="M28.3,4.82S8.86,15.99,16.14,21.18c6.19,4.42,9.4,7.81,9.4,14.8h-1.01c0-6.75-8.16-10.07-14.23-14.4C2.09,15.72,28.3,4.42,28.3,4.42c0,0,26.21,11.3,18,17.16-6.07,4.34-14.23,7.66-14.23,14.4h-1.01c0-6.99,3.22-10.38,9.4-14.8,7.28-5.2-12.16-16.36-12.16-16.36"/>
      <path class="cls-6" d="M24.97,44.15c-1.38,3.33-9.41,9.03-6.96,14.09,2.08,4.3,9.51,7.13,11.17,7.59,1.77-.42,10.12-3.18,11.41-8.35,.7-2.83-.21-5.28-2.95-7.37-2.67-2.03-5.45-3.86-5.88-6.04l.93-.03c.38,1.92,2.86,3.67,5.7,5.84,2.77,2.12,5.38,4.56,4.6,7.69-1.54,6.21-13.5,8.71-13.5,8.71l-.3,.06-.29-.07s-10.62-2.68-13.13-7.85c-2.37-4.89,7.66-11.6,8.26-14.42l.93,.13"/>
      <path class="cls-6" d="M31.68,39.58c0,3.56,1.45,6.87,7,9.73,4.45,2.29,12.07,1.7,14.42,.02-3.71,.15-8.25-.09-10.79-3.19-2.79-3.42-2.69-7.49,1.39-8.98,3.21-1.17,5.5,.34,6.75,1.22,2.56-4.18-1.25-8.62-9.19-7.74-8.21,.92-9.58,5.35-9.58,8.94m6.43,10.33c-5.85-3.01-7.43-6.57-7.42-10.33,0-3.72,1.41-10.06,10.37-11.06,8.78-.98,12.52,6.46,10.09,9.99-.65,.92-.75,.49-.75,.49-.94-.79-2.94-2.39-6.25-1.18-3.24,1.18-3.69,4.63-.98,7.94,2.6,3.18,5.99,3.39,10.23,3.05,0,0,.38-.01,.55,.17,.17,.18-.05,.36-.05,.36-.98,1.43-9.92,3.59-15.78,.57Z"/>
      <path class="cls-6" d="M25.01,39.58c0-3.59-1.37-8.03-9.58-8.94-7.94-.88-11.75,3.56-9.19,7.74,1.25-.88,3.54-2.39,6.75-1.22,4.08,1.49,4.19,5.56,1.39,8.98-2.53,3.1-7.08,3.34-10.79,3.19,2.35,1.69,9.96,2.27,14.42-.02,5.54-2.85,7-6.17,7-9.73m-6.43,10.33c-5.86,3.02-14.81,.85-15.78-.57,0,0-.22-.18-.05-.36,.17-.18,.55-.17,.55-.17,4.24,.34,7.63,.13,10.23-3.05,2.71-3.31,2.26-6.75-.98-7.94-3.31-1.21-5.31,.39-6.25,1.18,0,0-.1,.43-.75-.49-2.43-3.54,1.31-10.97,10.09-9.99,8.96,1,10.37,7.34,10.37,11.06,0,3.76-1.57,7.32-7.42,10.33Z"/>
      <path class="cls-6" d="M9.76,34.69s9.6-4.76,12.13,.98c1.83,4.15-3.99,10.96-3.99,10.96l-.66,.4s4.16-6.32,2.63-10.06c-1.5-3.68-10.89-1.83-10.9-1.82l.77-.46"/>
      <path class="cls-7" d="M46.99,34.69l.77,.46s-9.4-1.85-10.9,1.82c-1.52,3.74,2.63,10.06,2.63,10.06l-.66-.4s-5.82-6.81-3.99-10.96c2.54-5.74,12.13-.98,12.13-.98"/>
      <path class="cls-6" d="M23.99,20.63s-8.23,2.36-6.26-3.32c1.42-4.1,8.73-9.06,8.73-9.06l.61-.23s-6.08,4.85-7.43,8.53c-1.33,3.61,5.06,3.83,5.07,3.83l-.71,.26"/>
      <path class="cls-6" d="M32.81,20.64l-.71-.25s6.4-.22,5.07-3.83c-1.35-3.68-7.43-8.53-7.43-8.53l.61,.23s7.31,4.96,8.73,9.06c1.96,5.68-6.26,3.32-6.26,3.32"/>
      <path class="cls-4" d="M26.99,58.61s-5.89,3.57-6.17-1.57c-.2-3.72,4.08-9.3,4.08-9.3l.42-.31s-3.32,5.25-3.21,8.6c.11,3.29,5.37,2.24,5.37,2.23l-.49,.35"/>
      <path class="cls-4" d="M30.78,58.62l-.49-.35s5.26,1.05,5.36-2.24c.11-3.35-3.23-8.59-3.23-8.59l.42,.31s4.3,5.58,4.11,9.3c-.27,5.15-6.17,1.58-6.17,1.58"/>
      <path class="cls-6" d="M28.06,23.83c.23-.15,.24,2.82,.26,3.32,.29,6.59,.24,5.97,.24,12.71s.69,13.61,.34,13.7c-.35,.1-.19,.07-.4-.03-.22-.1-.4-2.71-.42-9.45-.02-6.75-.24-20.1-.02-20.25"/>
      <path class="cls-6" d="M28.94,63.85c-.5,0-.97-.21-1.32-.59-.35-.38-.55-.89-.55-1.42s.2-1.05,.55-1.42c.35-.38,.83-.59,1.32-.59s.56,.52,.91,.89c.35,.38,.96,.59,.96,1.12s-.2,1.05-.55,1.42c-.35,.38-.83,.59-1.32,.59"/>
      <path class="cls-6" d="M27.96,18.84c-.38,0-.75-.35-1.02-.98s-.42-1.48-.42-2.36,.15-1.73,.42-2.36c.27-.63,.64-.98,1.02-.98s.45,.5,.73,1.13,.72,1.33,.72,2.21-.15,1.74-.42,2.36c-.27,.63-.64,.98-1.02,.98"/>
    </g>
  </g>
</svg>