<?xml version="1.0" encoding="UTF-8"?>
<svg id="Layer_1" data-name="Layer 1" xmlns="http://www.w3.org/2000/svg" xmlns:xlink="http://www.w3.org/1999/xlink" viewBox="0 0 283.48 226.77">
  <defs>
    <style>
      .cls-1 {
        fill: none;
      }

      .cls-2 {
        clip-path: url(#clippath);
      }

      .cls-3, .cls-4 {
        fill: #bdc1c7;
      }

      .cls-5, .cls-6 {
        fill: #c4ae7c;
      }

      .cls-7 {
        clip-path: url(#clippath-1);
      }

      .cls-6, .cls-4, .cls-8, .cls-9, .cls-10 {
        fill-rule: evenodd;
      }

      .cls-8 {
        fill: #a6adb4;
      }

      .cls-9 {
        fill: #cdd0d4;
      }

      .cls-10 {
        fill: #004270;
      }
    </style>
    <clipPath id="clippath">
      <rect class="cls-1" width="283.46" height="226.77"/>
    </clipPath>
    <clipPath id="clippath-1">
      <rect class="cls-1" x=".01" y="0" width="283.47" height="226.77"/>
    </clipPath>
  </defs>
  <g class="cls-2">
    <g class="cls-7">
      <path class="cls-10" d="M259.16,110.67h.71c.3,1.04,.68,2.09,1.16,3.15,.47,1.06,1.1,2.03,1.89,2.92,.79,.89,1.77,1.61,2.92,2.18,1.16,.56,2.55,.84,4.18,.84,1.37,0,2.59-.42,3.66-1.27,1.07-.84,1.61-2.22,1.61-4.12,0-1.64-.42-2.8-1.25-3.47-.83-.67-1.81-1.2-2.92-1.59l-5.01-1.75c-.64-.22-1.34-.49-2.09-.81-.75-.32-1.45-.78-2.09-1.36-.64-.58-1.17-1.33-1.57-2.24-.41-.91-.61-2.08-.61-3.51,0-1.21,.23-2.34,.71-3.38,.47-1.04,1.11-1.95,1.93-2.73,.81-.78,1.79-1.38,2.92-1.82,1.13-.43,2.37-.65,3.69-.65,.94,0,1.7,.08,2.28,.23,.58,.15,1.08,.3,1.51,.46,.43,.15,.81,.3,1.16,.46,.34,.15,.75,.23,1.22,.23s.81-.17,1.03-.52h.71v7.4h-.71c-.3-.95-.64-1.87-1.03-2.76-.39-.89-.85-1.68-1.38-2.37-.54-.69-1.2-1.23-1.99-1.62s-1.72-.58-2.79-.58c-2.05,0-3.65,.47-4.79,1.4-1.13,.93-1.7,2.18-1.7,3.73,0,1.38,.48,2.43,1.45,3.15,.96,.72,2.39,1.38,4.27,1.98l4.69,1.56c2.01,.69,3.66,1.65,4.95,2.86,1.28,1.21,1.93,2.81,1.93,4.81,0,1.17-.23,2.32-.68,3.44-.45,1.12-1.11,2.11-1.99,2.96-.88,.84-1.95,1.53-3.21,2.04-1.26,.52-2.71,.78-4.34,.78-.94,0-1.81-.1-2.6-.29-.79-.19-1.52-.4-2.18-.62l-1.83-.62c-.56-.19-1.07-.29-1.54-.29s-.81,.1-1.03,.29c-.21,.19-.39,.4-.51,.62h-.71v-9.09m-34.11,4.87c0-1.17,.21-2.18,.64-3.02,.43-.84,.95-1.58,1.57-2.21,.62-.63,1.28-1.14,1.99-1.53,.71-.39,1.34-.71,1.9-.97-2.48-1.73-3.73-4.07-3.73-7.01,0-1.51,.36-2.88,1.09-4.09,.73-1.21,1.65-2.24,2.76-3.09,1.11-.84,2.34-1.48,3.69-1.91s2.64-.65,3.89-.65c1.93,0,3.59,.39,4.98,1.17,1.39,.78,2.41,1.49,3.05,2.14,.47-.82,1.17-1.58,2.09-2.27,.92-.69,2.07-1.04,3.44-1.04,.86,0,1.65,.18,2.38,.55s1.09,1.16,1.09,2.37c0,.78-.25,1.36-.74,1.75-.49,.39-.99,.58-1.51,.58-.6,0-1.03-.17-1.28-.52-.26-.35-.48-.71-.68-1.1-.19-.39-.4-.76-.61-1.1-.21-.35-.53-.52-.96-.52s-.87,.18-1.32,.55c-.45,.37-.85,.79-1.19,1.27,.38,.43,.88,1.17,1.48,2.21s.9,2.34,.9,3.9c0,1.3-.32,2.49-.96,3.57-.64,1.08-1.49,2.04-2.54,2.86-1.05,.82-2.27,1.46-3.66,1.92-1.39,.46-2.82,.68-4.27,.68s-2.81-.21-3.92-.62c-1.11-.41-1.97-.77-2.57-1.07l-1.51,.71c-.54,.26-1.03,.58-1.48,.97-.45,.39-.82,.86-1.12,1.4-.3,.54-.45,1.16-.45,1.85,0,.65,.13,1.19,.39,1.62,.26,.43,.59,.76,.99,.97,.41,.22,.87,.37,1.38,.45,.51,.09,1.05,.13,1.61,.13h10.15c3,0,5.38,.72,7.16,2.18,1.78,1.45,2.67,3.73,2.67,6.85,0,1.9-.41,3.64-1.22,5.19-.81,1.56-1.89,2.91-3.24,4.06-1.35,1.15-2.9,2.04-4.66,2.66-1.76,.63-3.55,.94-5.4,.94-1.67,0-3.2-.19-4.59-.58-1.39-.39-2.6-.92-3.63-1.59-1.03-.67-1.83-1.48-2.41-2.43-.58-.95-.87-2.01-.87-3.18s.22-2.15,.67-3.08c.45-.93,1.03-1.75,1.73-2.47,.71-.71,1.51-1.33,2.41-1.85,.9-.52,1.8-.95,2.7-1.3v-.13c-2.83,0-4.91-.47-6.26-1.4s-2.02-2.52-2.02-4.77Zm20.04-14.94c0-1-.06-2-.19-3.02-.13-1.02-.4-1.95-.8-2.79-.41-.84-1.03-1.53-1.86-2.04-.84-.52-1.96-.78-3.37-.78-2.18,0-3.83,.67-4.95,2.01-1.11,1.34-1.67,3.55-1.67,6.62,0,1.3,.1,2.47,.29,3.51,.19,1.04,.55,1.94,1.06,2.69,.51,.76,1.2,1.33,2.06,1.72,.86,.39,1.95,.58,3.28,.58,2.23,0,3.81-.7,4.75-2.11,.94-1.41,1.41-3.54,1.41-6.4Zm-10.4,21.11l-1.7,1.07c-.58,.37-1.09,.83-1.54,1.4-.45,.56-.81,1.22-1.09,1.98-.28,.76-.42,1.7-.42,2.82,0,1.56,.27,2.85,.8,3.86,.53,1.02,1.22,1.84,2.05,2.47,.84,.63,1.77,1.07,2.79,1.33,1.03,.26,2.03,.39,3.02,.39,1.54,0,2.94-.24,4.21-.71,1.26-.48,2.35-1.11,3.27-1.92,.92-.8,1.63-1.72,2.12-2.76,.49-1.04,.74-2.12,.74-3.25,0-2.42-.65-4.15-1.96-5.16-1.31-1.02-3.09-1.53-5.36-1.53h-6.94Zm-50.1-2.86h4.94v-26.04h-4.94v-.91h10.34v6.95h.13c.26-.56,.63-1.28,1.12-2.14,.49-.87,1.17-1.71,2.02-2.53,.86-.82,1.93-1.53,3.21-2.11,1.29-.58,2.85-.88,4.69-.88,2.83,0,5.13,.69,6.9,2.08,1.78,1.39,2.67,3.59,2.67,6.62v18.96h4.94v.91h-15.41v-.91h4.95v-20.98c0-1.69-.4-3.07-1.19-4.16-.79-1.08-2.02-1.62-3.69-1.62-1.37,0-2.68,.3-3.92,.91-1.24,.61-2.33,1.45-3.28,2.53-.94,1.08-1.68,2.36-2.22,3.83-.54,1.47-.8,3.07-.8,4.81v14.68h4.95v.91h-15.41v-.91Zm-18.82,0h4.95v-26.04h-4.95v-.91h10.47v26.95h4.94v.91h-15.41v-.91Zm4.18-42.08c0-.95,.33-1.76,.99-2.43,.66-.67,1.47-1.01,2.41-1.01s1.74,.34,2.41,1.01c.66,.67,1,1.48,1,2.43s-.33,1.76-1,2.44c-.66,.67-1.47,1.01-2.41,1.01s-1.75-.34-2.41-1.01c-.66-.67-.99-1.48-.99-2.44Zm-43.61,42.08h4.95v-26.04h-4.95v-.91h10.34v6.95h.13c.26-.56,.63-1.28,1.12-2.14,.49-.87,1.17-1.71,2.02-2.53,.86-.82,1.93-1.53,3.21-2.11,1.28-.58,2.85-.88,4.69-.88,2.83,0,5.13,.69,6.9,2.08,1.78,1.39,2.67,3.59,2.67,6.62v18.96h4.95v.91h-15.42v-.91h4.95v-20.98c0-1.69-.4-3.07-1.19-4.16-.79-1.08-2.02-1.62-3.69-1.62-1.37,0-2.68,.3-3.92,.91-1.24,.61-2.33,1.45-3.27,2.53-.94,1.08-1.68,2.36-2.22,3.83s-.8,3.07-.8,4.81v14.68h4.95v.91h-15.42v-.91Zm-39.25,0h4.94v-26.04h-4.94v-.91h10.34v6.95h.13c.26-.56,.63-1.28,1.12-2.14,.49-.87,1.17-1.71,2.02-2.53,.86-.82,1.93-1.53,3.21-2.11,1.28-.58,2.85-.88,4.69-.88,2.83,0,5.13,.69,6.91,2.08,1.78,1.39,2.66,3.59,2.66,6.62v18.96h4.94v.91h-15.41v-.91h4.94v-20.98c0-1.69-.4-3.07-1.19-4.16-.79-1.08-2.02-1.62-3.69-1.62-1.37,0-2.68,.3-3.92,.91-1.24,.61-2.33,1.45-3.28,2.53-.94,1.08-1.68,2.36-2.22,3.83-.54,1.47-.8,3.07-.8,4.81v14.68h4.95v.91h-15.42v-.91Zm-24.34-15.2l-.03,1.33-.03,1.72c0,1.43,.08,2.92,.26,4.48,.17,1.56,.55,2.97,1.12,4.22,.58,1.26,1.43,2.29,2.57,3.12,1.13,.82,2.64,1.23,4.53,1.23s3.44-.28,4.66-.84c1.22-.56,2.18-1.25,2.89-2.05,.71-.8,1.23-1.61,1.57-2.43,.34-.82,.6-1.49,.77-2.01l.96,.19c-.13,.48-.37,1.16-.74,2.04-.36,.89-.94,1.78-1.74,2.66-.79,.89-1.86,1.67-3.21,2.34-1.35,.67-3.09,1.01-5.23,1.01s-4.12-.35-5.94-1.04c-1.82-.69-3.39-1.69-4.72-2.99-1.33-1.3-2.35-2.85-3.08-4.64-.73-1.8-1.09-3.8-1.09-6.01,0-1.9,.38-3.76,1.12-5.55,.75-1.8,1.78-3.39,3.08-4.77,1.31-1.39,2.84-2.5,4.59-3.34,1.76-.85,3.64-1.27,5.65-1.27,1.2,0,2.48,.22,3.85,.65,1.37,.43,2.64,1.14,3.82,2.11,1.18,.97,2.16,2.26,2.96,3.86,.79,1.6,1.19,3.59,1.19,5.97h-19.78Zm13.23-.91c.09-.61,.13-1.17,.13-1.69v-1.62c0-1.47-.14-2.68-.42-3.64-.28-.95-.66-1.71-1.16-2.27-.49-.56-1.09-.96-1.8-1.2-.71-.24-1.47-.36-2.28-.36-1.46,0-2.65,.29-3.6,.88-.94,.58-1.69,1.38-2.25,2.37-.56,1-.98,2.14-1.25,3.44-.28,1.3-.46,2.66-.55,4.09h13.17ZM2.95,118.85h7.13v-44.42H2.95v-.91H23.63v.91h-7.13v21.24h21.39v-21.24h-7.13v-.91h20.68v.91h-7.13v44.42h7.13v.91H30.76v-.91h7.13v-22.28H16.5v22.28h7.13v.91H2.95v-.91Z"/>
      <rect class="cls-5" x="218.23" y="151.55" width="60.12" height=".87"/>
      <path class="cls-6" d="M181.97,174.73h7.04v-44.42h-7.04v-.91h36.28v11.24h-.7c-.55-1.69-1.14-3.17-1.78-4.45-.63-1.28-1.4-2.36-2.28-3.25-.89-.89-1.95-1.55-3.17-1.98s-2.71-.65-4.44-.65h-10.53v21.04h4.12c1.39,0,2.58-.13,3.55-.39,.97-.26,1.81-.75,2.5-1.46,.7-.71,1.29-1.69,1.78-2.92,.49-1.23,.96-2.82,1.43-4.77h.7v20.2h-.7l-.92-3.64c-.32-1.17-.76-2.21-1.33-3.12-.57-.91-1.33-1.63-2.28-2.18-.95-.54-2.19-.81-3.71-.81h-5.14v22.47h7.04v.91h-20.42v-.91m-50.36-22.28c0-3.46,.67-6.67,2-9.61s3.04-5.5,5.14-7.66c2.09-2.16,4.45-3.86,7.07-5.1,2.62-1.23,5.24-1.85,7.86-1.85,2.79,0,5.51,.62,8.15,1.85,2.64,1.23,5,2.93,7.07,5.1,2.07,2.17,3.73,4.72,4.98,7.66,1.25,2.94,1.87,6.15,1.87,9.61,0,3.03-.57,6-1.71,8.9-1.14,2.9-2.71,5.48-4.69,7.73-1.99,2.25-4.32,4.07-7.01,5.46-2.68,1.39-5.57,2.08-8.66,2.08s-6.11-.67-8.82-2.01c-2.71-1.34-5.04-3.13-7.01-5.36-1.97-2.23-3.5-4.81-4.6-7.73-1.1-2.92-1.65-5.94-1.65-9.06Zm7.29,0c0,3.9,.25,7.29,.76,10.2,.51,2.9,1.35,5.33,2.54,7.27,1.18,1.95,2.71,3.4,4.57,4.35,1.86,.95,4.16,1.43,6.91,1.43s5-.48,6.88-1.43c1.88-.95,3.42-2.4,4.6-4.35,1.18-1.95,2.03-4.37,2.54-7.27,.51-2.9,.76-6.3,.76-10.2,0-2.99-.19-5.88-.57-8.67-.38-2.79-1.11-5.28-2.19-7.47-1.08-2.19-2.58-3.93-4.5-5.23-1.92-1.3-4.43-1.95-7.52-1.95s-5.59,.65-7.52,1.95c-1.92,1.3-3.43,3.04-4.5,5.23-1.08,2.19-1.81,4.68-2.19,7.47-.38,2.79-.57,5.68-.57,8.67Zm-61.4,22.28h7.04v-44.42h-7.04v-.91h20.42v.91h-7.04v21.24h21.12v-21.24h-7.04v-.91h20.42v.91h-7.04v44.42h7.04v.91h-20.42v-.91h7.04v-22.28h-21.12v22.28h7.04v.91h-20.42v-.91Z"/>
      <path class="cls-9" d="M153.43,11.09s-18.11,10.4-11.33,15.24c5.76,4.11,8.76,7.28,8.76,13.79h-.94c0-6.28-7.6-9.38-13.26-13.42-7.65-5.46,16.77-15.98,16.77-15.98,0,0,24.42,10.52,16.77,15.98-5.65,4.04-13.25,7.13-13.25,13.42h-.94c0-6.51,2.99-9.67,8.76-13.79,6.78-4.84-11.33-15.24-11.33-15.24"/>
      <path class="cls-8" d="M150.32,47.72c-1.29,3.1-8.77,8.41-6.49,13.12,1.94,4,8.86,6.64,10.4,7.07,1.65-.39,9.43-2.96,10.62-7.78,.65-2.64-.2-4.92-2.75-6.86-2.48-1.9-5.08-3.59-5.48-5.62l.87-.02c.35,1.79,2.66,3.42,5.31,5.44,2.58,1.97,5.01,4.24,4.29,7.16-1.44,5.78-12.57,8.11-12.57,8.11l-.27,.06-.27-.07s-9.9-2.5-12.23-7.31c-2.21-4.56,7.13-10.8,7.69-13.43l.87,.12"/>
      <path class="cls-8" d="M156.58,43.46c0,3.31,1.35,6.4,6.52,9.06,4.15,2.13,11.24,1.59,13.43,.02-3.45,.14-7.69-.09-10.05-2.97-2.6-3.18-2.5-6.98,1.3-8.36,2.99-1.09,5.12,.32,6.28,1.13,2.38-3.89-1.17-8.03-8.56-7.21-7.65,.85-8.92,4.98-8.92,8.33m5.99,9.62c-5.45-2.81-6.92-6.12-6.92-9.62,0-3.46,1.32-9.37,9.66-10.3,8.18-.91,11.67,6.01,9.4,9.31-.61,.86-.7,.45-.7,.45-.88-.74-2.74-2.23-5.82-1.1-3.02,1.1-3.44,4.31-.91,7.39,2.42,2.96,5.57,3.16,9.52,2.84,0,0,.36-.01,.52,.16,.16,.17-.05,.34-.05,.34-.91,1.33-9.24,3.35-14.7,.54Z"/>
      <path class="cls-8" d="M150.36,43.46c0-3.35-1.28-7.48-8.92-8.33-7.39-.82-10.94,3.31-8.56,7.21,1.16-.82,3.3-2.22,6.28-1.13,3.8,1.38,3.9,5.18,1.3,8.36-2.36,2.88-6.59,3.11-10.05,2.97,2.18,1.57,9.28,2.12,13.43-.02,5.16-2.66,6.52-5.75,6.52-9.06m-5.99,9.62c-5.46,2.81-13.79,.8-14.7-.54,0,0-.21-.17-.05-.34,.16-.17,.52-.16,.52-.16,3.95,.32,7.1,.12,9.52-2.84,2.52-3.08,2.11-6.29-.91-7.39-3.08-1.12-4.95,.37-5.82,1.1,0,0-.09,.41-.7-.45-2.26-3.3,1.22-10.22,9.4-9.31,8.35,.93,9.66,6.84,9.66,10.3,0,3.5-1.46,6.82-6.91,9.62Z"/>
      <path class="cls-8" d="M136.16,38.91s8.94-4.43,11.3,.91c1.71,3.86-3.71,10.21-3.71,10.21l-.61,.37s3.87-5.88,2.45-9.37c-1.4-3.43-10.14-1.7-10.15-1.7l.72-.43"/>
      <path class="cls-10" d="M170.83,38.91l.72,.43s-8.75-1.73-10.15,1.7c-1.42,3.49,2.45,9.37,2.45,9.37l-.61-.37s-5.42-6.35-3.71-10.21c2.36-5.35,11.3-.91,11.3-.91"/>
      <path class="cls-8" d="M149.41,25.81s-7.66,2.19-5.84-3.09c1.32-3.82,8.13-8.44,8.13-8.44l.57-.21s-5.66,4.52-6.92,7.94c-1.24,3.36,4.71,3.57,4.72,3.57l-.66,.24"/>
      <path class="cls-8" d="M157.62,25.83l-.66-.24s5.96-.21,4.72-3.57c-1.26-3.42-6.92-7.94-6.92-7.94l.57,.21s6.81,4.62,8.13,8.44c1.83,5.29-5.84,3.09-5.84,3.09"/>
      <path class="cls-4" d="M152.2,61.18s-5.49,3.33-5.75-1.47c-.19-3.46,3.8-8.66,3.8-8.66l.39-.29s-3.1,4.89-2.99,8.01c.11,3.06,5,2.08,5,2.08l-.45,.33"/>
      <path class="cls-4" d="M155.71,61.19l-.45-.33s4.9,.97,5-2.09c.1-3.12-3.01-8-3.01-8l.39,.29s4,5.2,3.82,8.66c-.25,4.8-5.74,1.48-5.74,1.48"/>
      <path class="cls-8" d="M153.2,28.8c.21-.14,.23,2.62,.25,3.09,.27,6.14,.22,5.56,.22,11.84s.65,12.67,.32,12.76c-.33,.09-.17,.07-.38-.03-.2-.1-.37-2.52-.39-8.8-.02-6.28-.23-18.72-.01-18.86"/>
      <path class="cls-8" d="M154.02,66.07c-.46,0-.9-.2-1.23-.55-.33-.35-.51-.83-.51-1.32s.18-.98,.51-1.33c.33-.35,.77-.55,1.23-.55s.52,.48,.85,.83c.33,.35,.89,.55,.89,1.04s-.18,.97-.51,1.32c-.33,.35-.77,.55-1.23,.55"/>
      <path class="cls-8" d="M153.11,24.15c-.36,0-.7-.33-.95-.91-.25-.58-.39-1.37-.39-2.2s.14-1.62,.39-2.2c.25-.58,.6-.91,.95-.91s.42,.47,.68,1.05c.25,.58,.67,1.24,.67,2.06s-.14,1.61-.39,2.2c-.25,.58-.6,.91-.95,.91"/>
      <rect class="cls-5" x="2.83" y="151.55" width="74.67" height=".87"/>
      <path class="cls-10" d="M276.05,195.83h2.31v.6h-1.65v2.95h1.48v.61h-1.48v3.16h1.64v.6h-2.3m-9.46-7.92h3.18v.6h-1.29v7.32h-.65v-7.32h-1.23v-.6Zm-10.06,0h.61l2.52,6.33v-6.33s.64,0,.64,0v7.92h-.62l-2.49-6.19v6.19h-.67v-7.92Zm-8.99,0h2.31v.6h-1.65v2.95h1.48v.61h-1.48v3.16h1.64v.6h-2.3v-7.92Zm-7.65,0h.65v7.92h-.65v-7.92Zm-9.14,7.32c.42,0,.72-.02,.89-.07,.17-.04,.36-.17,.59-.39,.22-.22,.34-.56,.34-1.03,0-.15-.03-.38-.1-.67-.06-.29-.24-.53-.53-.73-.29-.19-.71-.29-1.26-.29h-.42v3.17h.49Zm-.36-3.75c.41,0,.72-.02,.93-.08,.21-.05,.42-.16,.63-.34,.21-.18,.33-.39,.37-.63,.04-.24,.06-.41,.06-.51,0-.45-.17-.79-.5-1.04-.33-.24-.82-.37-1.47-.37h-.15v2.95h.13Zm-.77-3.55h.99c.69,0,1.23,.12,1.61,.37,.38,.25,.61,.55,.69,.9,.08,.35,.12,.62,.12,.81,0,.43-.11,.79-.32,1.1-.22,.31-.5,.51-.86,.62l-.15,.04,.11,.02,.13,.04c.4,.13,.72,.35,.94,.67,.23,.31,.34,.69,.34,1.15,0,1.47-.71,2.2-2.12,2.2h-1.49v-7.92Zm-12.25,0h.61l1.9,6.9,1.88-6.9h.59l.57,7.92h-.63l-.44-6.15-1.69,6.15h-.58l-1.71-6.22-.44,6.22h-.63l.57-7.92Zm-7.73,5.63l-.81-4.26-.88,4.26h1.68Zm-1.1-5.63h.62l1.6,7.92h-.69l-.34-1.68h-1.91l-.37,1.68h-.69l1.77-7.92Z"/>
      <path class="cls-8" d="M189.51,198.36c.39,0,.72,.14,1,.42,.28,.28,.42,.62,.42,1.01s-.14,.73-.42,1.01c-.28,.28-.61,.42-1,.42s-.74-.14-1.01-.42c-.28-.28-.42-.62-.42-1.01s.14-.73,.42-1.01c.28-.28,.62-.42,1.01-.42"/>
      <path class="cls-10" d="M168.97,202.85l.08,.07,.09,.06,.12,.07c.15,.09,.28,.15,.4,.18,.12,.03,.22,.05,.3,.06,.08,0,.15,.01,.2,.01,.34,0,.61-.1,.8-.31,.2-.21,.3-.48,.3-.84,0-.1,0-.22-.03-.34-.02-.12-.09-.3-.21-.54-.12-.24-.34-.59-.65-1.05l-.23-.34-.26-.37-.24-.34c-.32-.44-.52-.84-.61-1.19l-.07-.32c0-.05-.01-.11-.02-.17s0-.11,0-.14c0-.5,.15-.9,.46-1.2,.3-.3,.71-.46,1.21-.46,.11,0,.27,.02,.47,.05,.21,.03,.43,.13,.68,.28l.13,.08-.07,.69-.11-.09c-.23-.18-.46-.31-.71-.37l-.19-.04s-.09-.01-.17-.01c-.29,0-.54,.1-.74,.3-.2,.2-.3,.46-.3,.78,0,.07,0,.13,.01,.17l.03,.22c.04,.17,.1,.33,.17,.47,.07,.14,.17,.31,.31,.51l.35,.5,.18,.26c.35,.49,.6,.85,.73,1.09,.13,.24,.23,.42,.29,.56,.06,.14,.12,.3,.18,.5,.06,.19,.09,.39,.09,.58,0,.48-.17,.88-.51,1.2-.34,.32-.77,.48-1.29,.48-.38,0-.76-.1-1.12-.3l-.13-.08,.07-.66m-9.66-7.02h3.26v.6h-1.32v7.32h-.67v-7.32h-1.27v-.6Zm-10.63,0h.63l2.59,6.33v-6.33s.66,0,.66,0v7.92h-.64l-2.56-6.19v6.19h-.68v-7.92Zm-9.54,0h2.37v.6h-1.7v2.95h1.52v.61h-1.52v3.16h1.69v.6h-2.36v-7.92Zm-10.3,0l1.38,6.79,1.47-6.79h.7l-1.81,7.92h-.71l-1.73-7.92h.7Zm-9.51,0h2.37v.6h-1.7v2.95h1.52v.61h-1.52v3.16h1.69v.6h-2.36v-7.92Z"/>
      <path class="cls-8" d="M101.41,198.36c.39,0,.72,.14,1,.42,.28,.28,.42,.62,.42,1.01s-.14,.73-.42,1.01c-.28,.28-.61,.42-1,.42s-.74-.14-1.01-.42c-.28-.28-.42-.62-.42-1.01s.14-.73,.42-1.01c.28-.28,.62-.42,1.01-.42"/>
      <path class="cls-10" d="M81.9,199.91c.66,0,1.15-.12,1.48-.35,.32-.23,.51-.52,.56-.86,.05-.34,.08-.57,.08-.7,0-.51-.16-.89-.48-1.16-.32-.27-.78-.4-1.38-.4h-.45v3.47h.2m-.87-4.07h1.24c.78,0,1.38,.19,1.8,.57,.42,.38,.63,.92,.63,1.63,0,.17-.02,.4-.06,.69-.04,.29-.18,.59-.42,.9-.24,.31-.54,.53-.9,.67l-.17,.06,1.9,3.41h-.77l-1.78-3.28h-.18s-.62,.01-.62,.01v3.27h-.67v-7.92Zm-11.19,0h.67v6.26c0,.42,.07,.72,.21,.89,.14,.18,.32,.28,.53,.31,.21,.03,.36,.04,.45,.04,.08,0,.22-.02,.43-.04,.21-.03,.38-.13,.52-.3,.14-.17,.21-.47,.21-.9v-6.26h.67v6.18c0,.63-.11,1.08-.34,1.36-.22,.27-.62,.45-1.19,.51-.05,.01-.11,.02-.18,.02h-.15c-.06,0-.12,0-.18-.01l-.54-.06c-.3-.03-.57-.19-.79-.46-.22-.28-.34-.73-.34-1.36v-6.18Zm-9.54,0h2.37v.6h-1.7v2.95h1.52v.6h-1.52v3.16h1.69v.6h-2.36v-7.92Zm-8.16,0h.67v7.92h-.67v-7.92Zm-9.96,4.08c.66,0,1.15-.12,1.48-.35,.32-.23,.51-.52,.56-.86,.05-.34,.08-.57,.08-.7,0-.51-.16-.89-.48-1.16-.32-.27-.78-.4-1.38-.4h-.45v3.47h.2Zm-.87-4.07h1.24c.78,0,1.38,.19,1.8,.57,.42,.38,.63,.92,.63,1.63,0,.17-.02,.4-.06,.69-.04,.29-.18,.59-.42,.9-.24,.31-.54,.53-.9,.67l-.17,.06,1.9,3.41h-.77l-1.78-3.28h-.18s-.62,.01-.62,.01v3.27h-.67v-7.92Zm-9.54,0h2.37v.6h-1.7v2.95h1.52v.6h-1.52v3.16h1.69v.6h-2.36v-7.92Zm-10.01,0h3.26v.6h-1.32v7.32h-.67v-7.32h-1.27v-.6Zm-10.63,0h.63l2.59,6.33v-6.33s.66,0,.66,0v7.92h-.64l-2.56-6.19v6.19h-.68v-7.92Zm-8.16,0h.67v7.92h-.67v-7.92Z"/>
      <rect class="cls-3" x="2.87" y="185.29" width="275.48" height=".87"/>
      <path class="cls-8" d="M254.39,166.69c0,.33,.03,.62,.08,.86,.06,.25,.19,.61,.41,1.07,.22,.47,.69,.7,1.41,.7,.51,0,.91-.16,1.21-.48,.29-.32,.5-.69,.62-1.09,.12-.41,.18-.91,.18-1.5,0-.28-.02-.61-.07-.99-.04-.38-.13-.74-.25-1.09-.12-.35-.31-.67-.56-.97-.25-.3-.61-.45-1.07-.45-.52,0-.91,.17-1.17,.49-.26,.33-.44,.66-.54,.98-.11,.32-.18,.73-.23,1.23l-.04,.55v.34c0,.11,0,.23,.02,.34m.62,8.99c.5-.71,1.05-1.63,1.67-2.75,.61-1.12,1.06-2.31,1.35-3.56-.34,.39-.7,.65-1.09,.78-.39,.13-.72,.19-.99,.19-.8,0-1.46-.35-1.99-1.06-.52-.7-.79-1.68-.79-2.92l.06-.89c.14-1.2,.47-2.11,1-2.73,.53-.61,1.19-.92,1.99-.92h.3c.09,0,.38,.05,.86,.16,.49,.11,.95,.55,1.4,1.32,.45,.77,.67,1.86,.67,3.27,0,.52-.05,1.18-.14,1.99-.09,.81-.34,1.73-.73,2.78-.39,1.05-1.01,2.28-1.84,3.67l-.23,.38-.19,.29h-1.33Z"/>
      <path class="cls-8" d="M235.54,173.31l.3,.4c.52,.61,.91,.82,1.31,1.02,.4,.19,.71,.17,1.09,.14,.37-.03,1.13-.21,1.67-.67,.54-.46,.66-.83,.79-1.21,.13-.38,.17-.89,.13-1.3-.03-.41-.13-1.36-.57-1.89-.44-.54-.83-.9-2.26-.9-.46,0-.86,.05-1.19,.16-.33,.11-.57,.2-.71,.27-.14,.07-.3,.16-.46,.26l1.05-7.59h4.59v1.04h-3.67l-.73,5.08,.26-.08c.16-.05,.37-.09,.63-.13,.26-.04,.46-.06,.63-.06,.9,0,1.83,.45,2.27,.85,.44,.4,.77,.65,1.03,1.36,.26,.7,.37,1.09,.29,2.02-.08,.93-.37,1.7-.88,2.4-.51,.7-1.25,1.12-1.64,1.24-.38,.12-.84,.24-1.34,.2-.5-.04-1.21-.14-1.73-.43-.52-.28-.92-.67-1.21-1.17l.38-1.03"/>
      <path class="cls-8" d="M271.28,173.31l.3,.4c.52,.61,.91,.82,1.31,1.02,.4,.19,.71,.17,1.09,.14,.37-.03,1.13-.21,1.67-.67,.54-.46,.66-.83,.79-1.21,.13-.38,.17-.89,.13-1.3-.03-.41-.13-1.36-.57-1.89-.44-.54-.83-.9-2.26-.9-.46,0-.86,.05-1.19,.16-.33,.11-.57,.2-.71,.27-.14,.07-.3,.16-.46,.26l1.05-7.59h4.59v1.04h-3.67l-.73,5.08,.26-.08c.16-.05,.37-.09,.63-.13,.26-.04,.46-.06,.63-.06,.9,0,1.83,.45,2.27,.85,.44,.4,.77,.65,1.03,1.36,.26,.7,.37,1.09,.29,2.02-.08,.93-.37,1.7-.89,2.4-.51,.7-1.25,1.12-1.64,1.24-.38,.12-.84,.24-1.34,.2-.5-.04-1.21-.14-1.73-.43s-.92-.67-1.21-1.17l.37-1.03"/>
      <polyline class="cls-8" points="218.89 161.99 221.17 161.99 221.17 175.68 220.03 175.68 220.03 163.06 218.89 163.06 218.89 161.99"/>
    </g>
  </g>
</svg>